<?xml version="1.0" encoding="utf-8"?>
<!-- Svg Vector Icons : http://www.onlinewebfonts.com/icon -->
<!DOCTYPE svg PUBLIC "-//W3C//DTD SVG 1.1//EN" "http://www.w3.org/Graphics/SVG/1.1/DTD/svg11.dtd">
<svg version="1.1" xmlns="http://www.w3.org/2000/svg" xmlns:xlink="http://www.w3.org/1999/xlink" x="0px" y="0px" viewBox="0 0 1000 1000" enable-background="new 0 0 1000 1000" xml:space="preserve">
<metadata> Svg Vector Icons : http://www.onlinewebfonts.com/icon </metadata>
<g><path d="M908.5,121.3C838.7,46.7,763.7,31.1,713,31.1c-70.6,0-130.3,30-159.8,55.6c-13.1,11.3-30.9,27.8-53.1,49.3c-15.1-14.8-26.4-25.3-33.6-31.8c-33-29.3-100.5-63.6-182.1-63.6c-72.7,0-138.6,28.1-190.5,81.4C59.5,157.4,35.3,195.9,22,236.4c-11.1,34-14.5,69.5-10.3,105.5c7.3,62.3,35.3,108.7,45.9,126.3l2,3.2c16.8,28.9,59.8,69.5,80.1,87.9l-8.9,8.9c-15.7,15.9-24.4,36.9-24.3,59.1c0.1,22.2,8.8,43.2,24.7,59c16.4,16.3,38.8,25.5,61.5,24.2c1.2,20.6,9.8,39.7,24.5,54.2c15.8,15.7,36.9,23.8,59.2,24.3c1.5,20,10,53.3,24.5,67.5c15.7,15.6,36.6,38.9,58.8,38.9c0.2,0,0.3,0,0.5,0c1.4,0,10,24.2,24.4,38.5c24.3,24.2,62.8,23.5,93.5,9.5l3.9,5.4c14.9,15,18,20,52.1,20v-0.2c34.2,0,53.1-10.2,70.6-27.8c17.2-17.1,29.7-39.9,30.5-63c0.3,0,1.9,0,2.2-0.1c22.7-1.3,33.4-11.3,50.1-28c16.7-16.6,17.4-30.3,17.4-52.8c0-0.3,0,30.2,0,30.2s23.2,0,23.3,0c22.6-34.2,44.3-30.8,61-47.6c17.3-17.3,27.3-49.9,28.3-72.9c23.3-0.8,46.4-15.9,64.2-33.7c32.8-34.6,33.7-93.2,2.3-125l-4.5-6c30.2-32.4,50.1-55.1,59.2-66.4c21.4-26.2,47.5-79.8,51-144.1C992.5,278.4,980.8,198.4,908.5,121.3z M568.9,899.6c-6.8,6.8-15.7,10.8-24.4,10.8c-4.5,0-10.9-1.1-16.1-6.3l-5.4-5.4l44.9-45.3l5.6,5.6C583.4,869,581.3,887.2,568.9,899.6z M614.7,539l138.7,138.9c9.7,9.7,7.2,28.5-5.3,41c-6.7,6.7-15,10.6-25.2,11.2c-6.4,0-11.8-2.1-15.7-6l-141.6-142l-32.2,32.1l-7.9,9.9l63.4,65.7c-13.5-8.9-30-12.7-46.1-13.5c-1.4-20-9.9-27.1-24.4-41.5c-15.8-15.6-36.7-12.5-58.9-12.5c-0.1,0-0.2,0-0.3,0c-1.5-34.2-10-50.3-24.4-64.6c-16.3-16.3-38.1-30.8-61.5-30.1c-0.9-15.7-6.2-33.5-15.1-46.2c20.6,8.7,43.5,13.3,67.2,13.3c3.4,0,6.9-0.9,9.9-1.1c7.8-0.4,77.9-5.5,132.7-58.3l69.2-64.4l93.9,97.7l-0.1,0.1l111.4,117.7c9.4,9.5,8.1,30.1-2.3,41.3c-7.2,7.1-16.5,11.2-25.4,11.2c-4.4,0-10.8-1-16.1-6.4L655.2,497.1L614.7,539z M264.7,374l-19.3,20.2l19.3,20.2c1.2,1.3,13.8,14.3,33.9,29.3c-24.9-2.3-50.1,6.3-68,24.3L180.9,518c-24.7-22.3-59.9-57.1-71.3-76.7l-2-3.3C47.3,338.6,57,243.4,135.6,162.7c51.4-52.7,109.5-63.8,149.2-63.8c5.2,0,10.3,0.2,15.1,0.5c58.6,3.9,105.5,28.5,127.8,48.3c6.5,5.8,16.7,15.5,30.6,29C370.4,263.9,265.8,372.8,264.7,374z M172.3,609.4L271.9,509c4.8-4.8,11.1-7.4,17.9-7.4c6.8,0,13.1,2.6,17.8,7.3c4.8,4.8,7.4,11.1,7.5,17.9c0,6.8-2.6,13.1-7.3,17.9L208.1,645c-9.4,9.5-26.2,9.6-35.7,0.1c-4.8-4.8-7.5-11.1-7.5-17.8C164.9,620.5,167.5,614.2,172.3,609.4z M258.2,687.9l99.7-100.4c4.8-4.8,11.1-7.5,17.9-7.5c6.7,0,13,2.6,17.8,7.4c4.8,4.7,7.4,11.1,7.4,17.8c0,6.7-2.6,13.1-7.3,17.9l-99.7,100.4c-9.4,9.6-26.1,9.7-35.7,0.2c-4.8-4.8-7.5-11.1-7.5-18C250.9,699,253.4,692.7,258.2,687.9z M341.8,765l99.7-100.5c4.8-4.8,11.1-7.4,17.9-7.4c6.7,0,13,2.6,17.8,7.3c9.9,9.8,9.9,25.9,0.1,35.8l-99.6,100.4c-9.7,9.7-26.3,9.6-35.8,0.2c-4.8-4.8-7.4-11.1-7.4-17.9C334.4,776.1,337,769.8,341.8,765z M425.6,842.4L525.3,742c4.8-4.8,11.1-7.4,17.9-7.4c6.7,0,13,2.6,17.8,7.3c4.8,4.8,7.5,11.1,7.5,17.8c0,6.8-2.6,13.2-7.3,17.9L461.4,878c-9.5,9.6-26.1,9.7-35.6,0.1c-4.8-4.7-7.5-11.1-7.5-17.8C418.2,853.6,420.9,847.2,425.6,842.4z M614.7,716.5l49.3,51.1c4.2,4.3,6.3,10.5,5.9,17.5c-0.6,8.5-4.6,16.8-11.2,23.5c-6.7,6.7-15,10.6-25.3,11.1c-6.3,0-11.8-2.1-15.7-6l-6-6C630.6,780.6,631.5,744.5,614.7,716.5z M839.9,497.9L639.6,289.1L527.8,392.8c-40.4,39-94.5,41.9-96.2,42c-39.1,2.4-80.9-24.1-103.8-42.3c49.4-51,203.4-209.4,263.7-261.8c22-19.1,67.1-41.3,121.6-41.3c56.9,0,108.4,24.2,153,71.8c58.2,62.1,67.7,125.1,65.3,167.1c-2.7,50.4-22.1,90.8-37.8,110.2C883,451.4,856.2,480.4,839.9,497.9z"/></g>
</svg>